<?xml version="1.0" standalone="no"?>
<!DOCTYPE svg PUBLIC "-//W3C//DTD SVG 20010904//EN"
 "http://www.w3.org/TR/2001/REC-SVG-20010904/DTD/svg10.dtd">
<svg version="1.0" xmlns="http://www.w3.org/2000/svg"
 width="150.000000pt" height="24.000000pt" viewBox="0 0 150.000000 24.000000"
 preserveAspectRatio="xMidYMid meet">

<g transform="translate(0.000000,24.000000) scale(0.100000,-0.100000)"
fill="#000000" stroke="none">
<path d="M1386 196 c-16 -13 -25 -29 -22 -35 9 -14 126 -15 126 -1 0 6 -4 10
-9 10 -5 0 -11 10 -13 23 -4 31 -45 33 -82 3z m56 -27 c-9 -4 -19 -4 -22 -1
-3 2 0 7 7 9 7 2 9 12 6 21 -4 13 -2 12 10 -3 14 -18 14 -21 -1 -26z"/>
<path d="M171 196 c-18 -21 -10 -126 10 -139 26 -16 66 -1 71 28 4 21 1 25
-18 25 -16 0 -22 -4 -18 -14 3 -8 1 -17 -5 -21 -7 -4 -11 14 -11 55 0 36 4 59
10 55 5 -3 7 -12 4 -20 -7 -18 23 -32 37 -18 6 6 6 19 0 36 -8 21 -17 27 -40
27 -15 0 -34 -6 -40 -14z"/>
<path d="M310 191 c-5 -11 -10 -38 -10 -61 0 -57 14 -80 50 -80 36 0 50 23 50
80 0 23 -5 50 -10 61 -14 26 -66 26 -80 0z m50 -61 c0 -27 -4 -50 -10 -50 -5
0 -10 23 -10 50 0 28 5 50 10 50 6 0 10 -22 10 -50z"/>
<path d="M450 129 c0 -71 2 -80 18 -77 11 2 18 14 20 36 2 17 7 32 13 32 5 0
9 7 9 15 0 8 -4 15 -10 15 -5 0 -10 7 -10 15 0 8 5 15 10 15 6 0 10 7 10 15 0
10 -10 15 -30 15 l-30 0 0 -81z"/>
<path d="M560 130 c0 -73 2 -80 20 -80 16 0 20 7 20 35 0 19 5 35 10 35 6 0
10 7 10 15 0 8 -4 15 -10 15 -5 0 -10 7 -10 15 0 8 7 15 15 15 8 0 15 7 15 15
0 10 -11 15 -35 15 l-35 0 0 -80z"/>
<path d="M670 130 l0 -80 35 0 c24 0 35 5 35 15 0 8 -7 15 -15 15 -8 0 -15 9
-15 20 0 11 7 20 15 20 8 0 15 7 15 15 0 8 -7 15 -15 15 -8 0 -15 7 -15 15 0
8 7 15 15 15 8 0 15 7 15 15 0 10 -11 15 -35 15 l-35 0 0 -80z"/>
<path d="M790 130 l0 -80 35 0 c24 0 35 5 35 15 0 8 -7 15 -15 15 -8 0 -15 9
-15 20 0 11 5 20 10 20 6 0 10 7 10 15 0 8 -4 15 -10 15 -5 0 -10 7 -10 15 0
8 5 15 10 15 6 0 10 7 10 15 0 10 -10 15 -30 15 l-30 0 0 -80z"/>
<path d="M970 130 l0 -80 38 0 c21 0 43 5 50 12 15 15 16 54 2 63 -6 4 -7 13
-1 23 5 10 5 27 0 40 -7 18 -16 22 -49 22 l-40 0 0 -80z m60 35 c0 -8 -4 -15
-10 -15 -5 0 -10 7 -10 15 0 8 5 15 10 15 6 0 10 -7 10 -15z m0 -65 c0 -11 -4
-20 -10 -20 -5 0 -10 9 -10 20 0 11 5 20 10 20 6 0 10 -9 10 -20z"/>
<path d="M1126 193 c-2 -10 -8 -46 -11 -80 -7 -59 -6 -63 14 -63 12 0 21 6 21
15 0 8 5 15 10 15 6 0 10 -7 10 -15 0 -9 9 -15 21 -15 17 0 20 5 16 23 -3 12
-9 48 -12 80 -7 54 -9 57 -35 57 -19 0 -30 -6 -34 -17z m37 -63 c3 -11 1 -20
-4 -20 -5 0 -9 9 -9 20 0 11 2 20 4 20 2 0 6 -9 9 -20z"/>
<path d="M1250 130 c0 -73 2 -80 20 -80 16 0 20 7 20 36 0 21 4 33 10 29 6 -3
10 -19 10 -36 0 -19 5 -29 15 -29 11 0 14 15 14 72 -1 80 -6 88 -56 88 l-33 0
0 -80z m55 41 c3 -5 1 -12 -5 -16 -5 -3 -10 1 -10 9 0 18 6 21 15 7z"/>
</g>
</svg>
